<svg xmlns="http://www.w3.org/2000/svg" viewBox="0 0 1891.8 1062.04"><defs><style>.cls-1,.cls-3{fill:#e4e5df;}.cls-1,.cls-5{opacity:0.6;}.cls-1,.cls-2,.cls-3,.cls-5{isolation:isolate;}.cls-2,.cls-7{fill:#fff;}.cls-3{opacity:0.3;}.cls-4{fill:#dedfd8;}.cls-5{fill:#f4f5f6;}.cls-6{fill:#cccfce;}</style></defs><title>Asset 1snow</title><g id="Layer_2" data-name="Layer 2"><g id="Layer_1-2" data-name="Layer 1"><g id="g5370"><g id="g5360"><path id="path5259" class="cls-1" d="M909,290.71c-.17,2.8-5.68,3-.47,7.76h3.69C912.46,294.53,914.15,291.16,909,290.71Zm-175.42,49c-.61,1.38-1.53,2.58-1.84,4.18.44.5.21,6.95,3.22,3.59C736.62,342.49,738.53,342,733.54,339.67Zm-42,2.39c-.81,1.65-5.34,2.41-3.23,6.57,1.54.39,1.21,6.63,4.61,1.19C693.14,346.52,696.16,345.12,691.54,342.06ZM794.47,355.2c-4.78,2.81-4.66-1.81-3.69,6,.29.21,1.93,5.22,4.16,3C795.08,362.17,796.28,357.87,794.47,355.2ZM680.92,382.67c-.31,1.36-6.18,1.09-1.39,6C682.62,385.64,684.35,386.82,680.92,382.67Zm78.29,26.11c-4-.06-3,2.39.65,7.92,1.19-2.07,4.32-3.48,1.38-7.76a16.52,16.52,0,0,0-2-.16ZM889.11,434c-.71,1.53-6.17,1.14-2.78,6,1.23,1.2,1.37,4.24,3.69,3.59C891.59,439.94,894.35,439.05,889.11,434Zm436.21,11a6.12,6.12,0,0,0-3.56.66c-2.71,4.38-4.79,3.61-.79,9.22,2.66.69,3.75,1.67,6.75,0C1327.72,449.6,1327.86,445.6,1325.32,445ZM793.41,483.58c-2,2.26-3.71,1.93-.58,6C795.63,487.94,796.79,486.54,793.41,483.58Zm485,22.1a7.16,7.16,0,0,0-1.49.06c-2.83,4.58-2.45,6,2.77,6.82.56-4.38,1.58-6.67-1.28-6.86Zm78.15,6.22c-2.49,1.47-2.43.29-2.76,3.91,1.24.75,1.33,4.26,3.76,2.27C1358.2,516.06,1361.49,513.23,1356.57,511.9Zm-733.35,20c-1.83,1.72-4.12,1.75-5.08,4.78.15.4.31.8.47,1.2l5.07,1.19c1.38-3.55,4.6-4.79-.46-7.17ZM557,554.12a4.2,4.2,0,0,0-1.73,1c-2.27,3.3-3.18,6.67,1.51,8.82C561.37,561.55,560.68,553.27,557,554.12Zm617.21,6a4.6,4.6,0,0,0-2.83.88c-1.59,6.19,0,8.67,5,5.86C1176.85,563.7,1176.44,560.35,1174.25,560.09Zm-403,2.9c-2.26,2.62-3.34,2-2.3,6.36,2.2-.35,2.73,2.13,5.25-.85C773.49,564.13,774.38,564.38,771.22,563ZM1236,567c-1.58-.4-3.28,1-3.75,5,1.49,5.12,4.56,10.66,6.79,1C1239,569.62,1237.54,567.38,1236,567Zm-756,7.67a6.15,6.15,0,0,0-3.65,1.67c-.3,4.54-.55,6.91,4,7.18C483.7,579.1,482.9,574.64,479.91,574.65ZM1330.69,584c-4,5.18-1.59,5.6,2.27,6.18C1333.46,586,1334.34,584.87,1330.69,584Zm-654.38,7c-2.52,5.85-4.35,3.66,1.84,6.56C677.53,595.44,686.13,594.05,676.31,591.06Zm140.88.58a1.43,1.43,0,0,0-1.48,1.21c.42,1.47.35,3.57,1.38,4.77.54-1.75,5.95,0,1.85-6a5.69,5.69,0,0,1-1.75,0Zm466.28,48c-3.56,1.42-4.71,3.8-1.51,8.13C1285.88,646.57,1288.4,642.82,1283.47,639.61Zm-32.91,2.92c-3,.88-7,4.34-.76,7.48C1252.37,648.07,1255.11,644.29,1250.56,642.53Zm73.35,38.28a4.87,4.87,0,0,0-2,.08c-2.06,2.13-2.39,1.61-2.26,4.87,2.65,1.52,2.45,1.82,5.27,0,0-2.93.36-4.59-1-5ZM533.1,690.4c-.8.06-2,.85-3.8,2.56,0,5.94,2.24,7.46,5.55,3.27C534.67,692.46,534.43,690.35,533.1,690.4ZM589,726.17c-.94.17-1.64,1-3.34,3.39.59,2.85-.37,5,3,5.87,3.49-1.88,5.65-3.83,3.54-8.82-.93-.17-1.61-.33-2.17-.42a2.89,2.89,0,0,0-1.06,0Zm-102.79,26a4.2,4.2,0,0,0-2.85,1.1c-1.38,1.07-2.31,4.15-.76,6.69C489.06,759.93,489.46,752.46,486.17,752.14Z"/><path id="path5259-2" data-name="path5259" class="cls-2" d="M473.48,552.18c-.17,2.81-5.68,3-.47,7.76h3.69C477,556,478.67,552.63,473.48,552.18Zm-175.42,49c-.61,1.39-1.53,2.58-1.84,4.19.45.49.21,6.94,3.22,3.59C301.14,604,303.05,603.52,298.06,601.14Zm-42,2.4c-.81,1.65-5.33,2.4-3.23,6.56,1.54.4,1.21,6.63,4.62,1.2C257.66,608,260.69,606.59,256.06,603.54ZM359,616.68c-4.78,2.81-4.66-1.81-3.69,6,.29.2,1.93,5.22,4.16,3C359.6,623.64,360.8,619.35,359,616.68ZM245.45,644.14c-.32,1.36-6.19,1.1-1.4,6C247.14,647.12,248.88,648.3,245.45,644.14Zm78.28,26.11c-4,0-3,2.39.65,7.93,1.2-2.07,4.32-3.48,1.38-7.77a18.77,18.77,0,0,0-2-.16Zm129.9,25.24c-.71,1.53-6.17,1.14-2.78,6,1.23,1.19,1.37,4.24,3.69,3.59C456.11,701.41,458.88,700.53,453.63,695.49Zm436.21,11a6.26,6.26,0,0,0-3.55.66c-2.72,4.39-4.8,3.61-.8,9.23,2.67.69,3.76,1.67,6.75,0C892.24,711.07,892.38,707.08,889.84,706.5ZM357.93,745.05c-2,2.27-3.71,1.93-.58,6C360.15,749.42,361.31,748,357.93,745.05Zm485,22.11a7.16,7.16,0,0,0-1.49.06c-2.83,4.58-2.44,6,2.77,6.82.56-4.39,1.58-6.67-1.28-6.87Zm78.15,6.22c-2.49,1.46-2.43.28-2.76,3.9,1.24.75,1.33,4.27,3.76,2.28C922.72,777.54,926,774.71,921.09,773.38Zm-733.35,20c-1.83,1.72-4.12,1.75-5.08,4.78.16.39.31.79.47,1.19l5.07,1.2c1.38-3.56,4.6-4.79-.46-7.17Zm-66.18,22.17a4.32,4.32,0,0,0-1.73,1c-2.27,3.31-3.18,6.68,1.51,8.82C125.89,823,125.2,814.75,121.56,815.59Zm617.21,6a4.55,4.55,0,0,0-2.83.88c-1.59,6.19,0,8.67,5,5.85C741.37,825.17,741,821.83,738.77,821.57Zm-403,2.9c-2.25,2.62-3.34,2-2.29,6.36,2.19-.36,2.73,2.13,5.24-.86C338,825.61,338.9,825.86,335.74,824.47Zm464.74,4c-1.58-.39-3.28,1-3.74,5,1.48,5.12,4.55,10.66,6.78,1C803.52,831.1,802.06,828.85,800.48,828.45ZM44.43,836.13a6.09,6.09,0,0,0-3.65,1.67c-.29,4.54-.55,6.9,4,7.18C48.22,840.58,47.42,836.12,44.43,836.13Zm850.78,9.39c-4,5.17-1.59,5.59,2.27,6.18C898,847.48,898.87,846.34,895.21,845.52Zm-654.38,7c-2.52,5.85-4.35,3.66,1.84,6.56C242.06,856.91,250.66,855.52,240.83,852.54Zm140.88.58a1.42,1.42,0,0,0-1.48,1.21c.42,1.47.35,3.56,1.38,4.77.54-1.75,6-.05,1.85-6a5.68,5.68,0,0,1-1.75,0Zm466.28,48c-3.56,1.41-4.71,3.79-1.51,8.12C850.4,908,852.92,904.29,848,901.09ZM815.08,904c-3,.88-7,4.34-.76,7.48C816.89,909.55,819.63,905.76,815.08,904Zm73.35,38.28a5,5,0,0,0-2,.07c-2.06,2.13-2.39,1.62-2.26,4.88,2.65,1.52,2.45,1.82,5.28,0,0-2.93.35-4.59-1-5ZM97.62,951.88c-.8.06-2,.85-3.8,2.56,0,5.94,2.24,7.46,5.55,3.26C99.19,953.93,99,951.82,97.62,951.88Zm55.86,35.77c-.94.17-1.64,1-3.34,3.38.59,2.86-.37,5,3,5.88,3.49-1.88,5.65-3.83,3.54-8.82-.93-.17-1.61-.34-2.16-.42a2.56,2.56,0,0,0-1.07,0Zm-102.79,26a4.13,4.13,0,0,0-2.84,1.1c-1.39,1.06-2.32,4.14-.76,6.69C53.58,1021.41,54,1013.94,50.69,1013.62Z"/><path id="path4495" class="cls-3" d="M482.3,15.34c-.64,0-1.48.15-2.63.33-1.63,0-3.06-.71-3.36,1.86-.2,2.27-1.29,5.72.48,8.09,1.58.25,3.6,1.24,5.53.31,2.35-2.36,3.38-3.18,3.37-7.46C484.39,15.94,484.23,15.24,482.3,15.34ZM741.09,35.4c-.09.27-8.64,7.24-3.37,10.19C750.21,52.15,748,36.63,741.09,35.4Zm423.23,2.32c-1-.06-2.37.52-4.07,2-7.28,6.25.4,13.74,9.33,10C1168.24,43.93,1167.49,37.91,1164.32,37.72ZM606.9,52.59c-1.65.21-3.28,1.63-3.88,4.86.67,4,1.06,6.47,5.29,4.67,2.5-1.44,3.62-3,2.64-7.16A4,4,0,0,0,606.9,52.59Zm195,16.65c-.37,0-.75.26-2.17.9a21.34,21.34,0,0,0,.24,4.66c.8.42,0,4.23,2.41,1.24,1-.79,2.15-.78,2.88-2.17-.37-1.14-.4-2.75-1.2-3.73a16.57,16.57,0,0,0-2.16-.9Zm851.14,7c-1.2,1.81-4.24,3.14-3.47,7.37,1.78,3.07,2.67,3.86,5.94,1.59.23-1,2.44-3.52,1.25-5.44C1655.87,78.53,1654.85,76,1653,76.22ZM650.82,79.46c-1.23,1-2.77.06-4.28.38-.34.43-3.11,1.31-2.28,4.79.52,2.68.22,5.74,3.14,6.29.79-1,2.55-1.32,2.57-3.33,1.07-1.57,2.21.56,2.29-3.32C652.16,83.93,652.6,80.18,650.82,79.46ZM921.93,100c-2.52,3.27-3.34,3.63-.26,7.12,2.37-.77,3-.16,3.67-3.39-.85-1.57-1.41-4-3.41-3.73ZM372.44,104c-1.41-.1-2.87.82-4.22,3.22.46,5.29-.65,6.51,4.09,6.84,3-1.62,4.86-1.19,4.08-7.14C375.23,105.23,373.86,104.1,372.44,104Zm114.61,6.46c-.21-.09-.57,0-2.84,1-.81,3.85-1.52,5.19,1.44,6.53,3.9-.77,5.17-1.77,3.37-7.47C487.33,110.82,487.26,110.57,487.05,110.47Zm214.13,2.74c-6.12,4.4-6.87,6.17-.56,11.64C706.56,121,708.43,119.07,701.18,113.21Zm1055.62,19.3c-1.85,3.59-5,4.89-2.49,10.16,2.76,1.79-.08,5.43,5.71,3.7,2.57-2.22,4.32-2.47,3.57-9.25C1759.69,134.46,1765.63,132.88,1756.8,132.51ZM1597.67,159.4c-2.31,3-2.19,2.2-3,6.56.65,1.88.93,3.68,2.63,3.92,2.19,1.57,2.88,2,5-1.06,0-2.17.61-4.6-.6-6.54C1600.41,161,1599.44,159.35,1597.67,159.4ZM754.59,198.29c-5.69,0-10.94.65-2.26,8.73C753.85,201.13,759.2,208.48,754.59,198.29ZM389.18,211.92c-.66.86-4.81.88-3.51,7.17,1.26,1.63.61,6.91,4,5.21,2.36-3.05,3.8.8,4.53-5.87-.51-1.74-.32-4.17-1.51-5.21C391.53,212.79,390.33,212.47,389.18,211.92Zm938.89,27.89c-2.64.68-4.4.64-6.26,3.4.4,2.63,0,5.2,2.22,6.28,2.26.24,4.07.53,6.07-1.05C1330.38,244.84,1331.05,241.93,1328.07,239.81Zm-147,4.91c-2.06.89-3.66,2.29-1.33,4.82C1182.8,249.91,1184.36,246.19,1181,244.72ZM1070.4,260.38a12.41,12.41,0,0,0-3.23.44c0,1.38-4.26,6.89,0,8.27,1.94-.45,4-.13,5.87-1.38C1073,262.5,1072.82,260.52,1070.4,260.38Zm61.26,2.82c-.57,0-1.19.55-1.7,1.76-.18,2.34-.42,2.84,1.79,3.64,2.93-1.51,1.61-5.52-.09-5.4Zm418,16.28a1.74,1.74,0,0,0-1.37.45c-.63,4.6-1.16,4.17,1,9.68,1.43,1.16,2,1.4,3.73.79.62-3.58,1-4.67.44-8.64C1552.45,281.19,1551.05,279.6,1549.66,279.48ZM143.6,286a5.27,5.27,0,0,0-2.22.34c-4,1.38-8,8.66,1.15,8.15C146.75,294.24,148,286.36,143.6,286ZM1146.45,302.3a3.14,3.14,0,0,0-1,.41c-.33,1.69-1.6,2.7.45,3.46C1147.88,305.39,1148.43,301.93,1146.45,302.3Zm-951.83.33c-2.82.31-7.58,10.12,2.29,7.4C200.37,309.07,201.39,301.88,194.62,302.63Zm524.55,12c-1.31,2.42-4,3.68-3.93,7.27,1.27.83.53,12.69,5.62,3.64C722.13,319.5,724.68,317.75,719.17,314.63Zm468.87,5c-1.47,1.71-2.86,3.33-.46,5.39C1190.7,324,1192.09,320.05,1188,319.65Zm-683.61,7.09a4.85,4.85,0,0,0-4.51,2.93c-.37,4.89-3.29,13.16,5.64,9.46a23.84,23.84,0,0,0,3.94-2.91C507.94,325.11,509.93,331.14,504.43,326.74Zm304.12,2.43c-1,2-4.93,2.85-3.38,6.54,2.44.73,3.41,7.16,7.31,2.19C812.86,333.08,815.65,330.22,808.55,329.17ZM389.33,343c-.52,0-.94.26-.92,1.64-.45,1.95-1.47,3.21-.93,5.64l.3.4,4.05,2.82c1.63-1.47,3.23-2.06,3.74-4.83-3.33-4,1.84-2.48-4.67-5.64-.42.27-1,0-1.57,0Zm1355.06,14.72c-1.74,1.39-3.87,1.2-3.22,5.45.42,2.75-.3,3.69,3,4.16,2.42-3.37,1.76,4.84,3.22-4.47C1746.82,360.51,1746.59,358.68,1744.39,357.72Zm-484.12,24.42c-2.35,0-3.91-.18-5.88,2.08-.49,5.45-1,3.9,1.63,7.59,1.35.23.18,2.82,3,.53,1.79-1.29,2.09-.91,2.82-3.67C1261.87,386,1261.88,384.08,1260.27,382.14Zm-399.63,1a5.59,5.59,0,0,0-1.81.54l-2.17,3.76s2.78,6.29,5.08,2.82C861.33,389.32,864,382.9,860.64,383.13ZM976.71,390c-1-.06-2.44.74-5,2.61l.54,6.2c2,.26,5.55,2.61,7.47-2.05C978.43,392.61,978.3,390.08,976.71,390Zm456,3.81c-2,.34-3.06,2.87-.81,7.56,1.45,1,2.9,2.15,4.34-.52-.15-3.24,2.8-7.11-1.26-6.65A4,4,0,0,0,1432.74,393.79Zm111.28.13c-2.54,1.49-2.92.83-2.73,4.49,2,4,2.83,6.5,6.69,1.6C1546.52,395.27,1547.45,395.36,1544,393.92ZM671.55,480.39c0,2.07-7,7.28,0,8.46C671.55,487.5,679.68,485.86,671.55,480.39Zm-255.49,36c-2.19.11-4.17,2-3.45,8,.8,1.55,3.42,4.87,5.61,3.12,4-2.76,6.72-6.18,0-10.78A5.33,5.33,0,0,0,416.06,516.34Zm1427.87,1.87c-2.68,4.24-4.25,6-2.86,11.55,4.94,3.19,11.32,4.75,10.36-5.08C1849.05,521,1848.25,518.14,1843.93,518.21ZM214.14,526.6c-3.67.35-5.61,8.69.51,10,4.71,1,9.6-4.92,1.15-9.62A2.75,2.75,0,0,0,214.14,526.6Zm671.55,3.56c-6.66,8.62-6.07,8.51,1.45,10.33C887,539.69,893.38,532.48,885.69,530.16ZM773.11,548.57c-1.21,0-2.73,1.12-5,4.13,4.63,6,1.83,17.63,10.16,2.82C776.2,552,775.11,548.62,773.11,548.57ZM51.46,554.82a3.32,3.32,0,0,0-3.28,1.39c-4.32,4.95,0,13.33,5.43,8.19C56.53,561.63,54.52,555.54,51.46,554.82ZM999.9,627.89c-1.08,0-2.65,1.49-4.93,5.67,2.79,3.62-.54,12.11,7.13,3.55C1002.25,635.18,1002.27,627.91,999.9,627.89Zm636.31,32.61a5.61,5.61,0,0,0-3.54.81c-3.37,7.64-2.92,8.67,5.56,8.46C1638.23,665.41,1638.66,661.08,1636.21,660.5Zm-402.28,15.61c-6.75.85-6.65,14.79,1.64,13.47C1241.62,688.61,1241.91,675.1,1233.93,676.11Zm328.72,31.2a7.72,7.72,0,0,0-2.66,1c.12,2.39-1.21,4.29.33,6.77,10.1,0-2.24.91,5.24-2.11,0-4-.75-5.93-2.91-5.67Z"/><path id="path4495-2" data-name="path4495" class="cls-2" d="M1755.79,1062c.64,0,1.48-.15,2.62-.32,1.64,0,3.07.71,3.37-1.87.2-2.27,1.29-5.72-.48-8.08-1.58-.26-3.6-1.25-5.54-.32-2.34,2.36-3.37,3.18-3.36,7.46C1753.7,1061.43,1753.86,1062.13,1755.79,1062ZM1497,1042c.09-.27,8.64-7.24,3.36-10.19C1487.88,1025.22,1490.12,1040.74,1497,1042Zm-423.24-2.32c1.06.06,2.38-.52,4.08-2,7.28-6.24-.4-13.73-9.33-10C1069.85,1033.45,1070.6,1039.46,1073.76,1039.65Zm557.43-14.86c1.65-.22,3.28-1.64,3.88-4.87-.67-4-1.06-6.47-5.29-4.66-2.5,1.44-3.62,3-2.64,7.15A4,4,0,0,0,1631.19,1024.79Zm-195-16.66c.37,0,.75-.26,2.17-.89a21.4,21.4,0,0,0-.24-4.67c-.8-.42,0-4.23-2.41-1.24-1,.79-2.15.78-2.88,2.18.37,1.13.4,2.74,1.2,3.73a17.37,17.37,0,0,0,2.16.89Zm-851.14-7c1.2-1.82,4.24-3.15,3.47-7.38-1.78-3.07-2.67-3.86-5.95-1.59-.23,1-2.43,3.52-1.24,5.44C582.22,998.84,583.24,1001.33,585.09,1001.16Zm1002.17-3.25c1.24-1,2.78-.06,4.29-.37.34-.44,3.1-1.31,2.28-4.8-.52-2.68-.22-5.73-3.14-6.29-.79,1-2.55,1.32-2.57,3.33-1.07,1.57-2.21-.56-2.29,3.32C1585.93,993.44,1585.49,997.2,1587.26,997.91Zm-271.1-20.49c2.52-3.27,3.34-3.63.25-7.11-2.36.76-3,.15-3.66,3.38.85,1.57,1.4,4,3.41,3.73Zm549.49-4c1.41.1,2.87-.83,4.21-3.23-.45-5.28.65-6.5-4.08-6.84-3,1.63-4.86,1.2-4.08,7.15C1862.86,972.14,1864.23,973.27,1865.65,973.37ZM1751,966.9c.21.1.57,0,2.84-1,.81-3.84,1.52-5.19-1.44-6.53-3.9.77-5.17,1.77-3.37,7.47C1750.76,966.55,1750.83,966.8,1751,966.9Zm-214.13-2.74c6.12-4.4,6.87-6.17.55-11.64C1531.53,956.36,1529.66,958.31,1536.91,964.16ZM481.29,944.87c1.85-3.59,5-4.89,2.49-10.17-2.76-1.78.08-5.43-5.71-3.7-2.57,2.23-4.32,2.47-3.57,9.25C478.4,942.91,472.46,944.49,481.29,944.87ZM640.41,918c2.32-3,2.2-2.2,3-6.55-.65-1.88-.93-3.68-2.63-3.93-2.19-1.57-2.88-2-5.05,1.06,0,2.17-.61,4.6.6,6.54C637.68,916.37,638.65,918,640.41,918Zm843.09-38.89c5.69,0,10.94-.64,2.26-8.72C1484.24,876.24,1478.89,868.89,1483.5,879.08Zm365.41-13.63c.66-.86,4.81-.88,3.51-7.17-1.26-1.62-.61-6.91-4-5.2-2.36,3-3.8-.8-4.53,5.86.51,1.74.32,4.18,1.51,5.21C1846.56,864.58,1847.76,864.9,1848.91,865.45ZM910,837.57c2.65-.69,4.41-.65,6.27-3.41-.4-2.63,0-5.19-2.22-6.27-2.26-.25-4.07-.53-6.07,1C907.71,832.53,907,835.44,910,837.57Zm147-4.92c2.06-.89,3.65-2.29,1.33-4.82C1055.29,827.47,1053.73,831.18,1057.06,832.65ZM1167.69,817a12.77,12.77,0,0,0,3.23-.43c0-1.38,4.26-6.9,0-8.28-1.94.45-4,.13-5.87,1.38C1165.05,814.88,1165.27,816.85,1167.69,817Zm-61.26-2.82c.57,0,1.19-.55,1.7-1.75.18-2.35.42-2.85-1.79-3.65-2.93,1.52-1.61,5.53.09,5.4Zm-418-16.27a1.79,1.79,0,0,0,1.37-.46c.63-4.6,1.16-4.17-1-9.68-1.43-1.15-2-1.4-3.73-.78-.62,3.58-1,4.67-.44,8.63C685.64,796.18,687,797.77,688.43,797.9ZM252.94,798a5.61,5.61,0,0,0,2.22-.34c4-1.38,8-8.67-1.16-8.15C249.79,789.71,248.58,797.6,252.94,798Zm838.7-22.89a3.39,3.39,0,0,0,1-.41c.33-1.7,1.6-2.71-.45-3.46C1090.21,772,1089.66,775.44,1091.64,775.08Zm-889.72,6.25c2.82-.31,7.58-10.12-2.29-7.4C196.17,774.89,195.15,782.07,201.92,781.33Zm1317-18.59c1.31-2.42,4-3.68,3.93-7.27-1.27-.82-.53-12.69-5.62-3.63C1516,757.87,1513.41,759.62,1518.92,762.74Zm-468.87-5c1.47-1.71,2.86-3.33.46-5.39C1047.39,753.41,1046,757.32,1050.05,757.72Zm683.61-7.09a4.82,4.82,0,0,0,4.5-2.92c.38-4.9,3.3-13.16-5.63-9.47a23.84,23.84,0,0,0-3.94,2.91C1730.15,752.27,1728.16,746.24,1733.66,750.63Zm-304.12-2.43c1-2,4.93-2.85,3.37-6.54-2.43-.73-3.4-7.16-7.3-2.19C1425.23,744.29,1422.44,747.15,1429.54,748.2Zm419.22-13.83c.52,0,.94-.26.92-1.64.45-2,1.47-3.2.93-5.63l-.3-.4-4-2.83c-1.63,1.47-3.23,2.06-3.74,4.83,3.33,4-1.84,2.48,4.67,5.64.41-.27,1,0,1.57,0ZM493.7,719.65c1.74-1.39,3.87-1.2,3.22-5.45-.42-2.74.3-3.68-3-4.16-2.42,3.37-1.76-4.84-3.22,4.48C491.27,716.86,491.5,718.69,493.7,719.65Zm484.12-24.42c2.35,0,3.91.18,5.88-2.08.49-5.45,1-3.89-1.63-7.59-1.35-.23-.18-2.81-3-.53-1.79,1.29-2.09.92-2.83,3.67C976.21,691.39,976.21,693.29,977.82,695.23Zm399.63-1a5.35,5.35,0,0,0,1.81-.54l2.17-3.76s-2.78-6.28-5.08-2.81C1376.76,688.05,1374.14,694.47,1377.45,694.24Zm-116.07-6.85c1,.07,2.44-.74,5-2.6l-.54-6.21c-2-.26-5.55-2.61-7.47,2.06C1259.66,684.76,1259.79,687.29,1261.38,687.39Zm-456-3.81c2-.34,3.06-2.86.81-7.56-1.45-1-2.9-2.15-4.35.52.16,3.24-2.79,7.11,1.27,6.65A3.91,3.91,0,0,0,805.35,683.58Zm-111.28-.13c2.54-1.49,2.92-.83,2.73-4.48-2-4-2.83-6.5-6.69-1.61C691.57,682.11,690.64,682,694.07,683.45ZM1566.54,597c0-2.07,7-7.29,0-8.47C1566.54,589.87,1558.41,591.52,1566.54,597ZM1822,561c2.19-.12,4.17-2,3.45-8-.8-1.55-3.42-4.88-5.62-3.13-4,2.76-6.71,6.18,0,10.78A5.59,5.59,0,0,0,1822,561ZM394.16,559.16c2.68-4.24,4.25-6,2.85-11.54-4.93-3.2-11.31-4.76-10.35,5.07C389,556.4,389.84,559.23,394.16,559.16Zm-211.76-1.8c3.66-.35,5.61-8.69-.51-10-4.71-1-9.6,4.92-1.15,9.62A2.81,2.81,0,0,0,182.4,557.36Zm1170-10.14c6.66-8.63,6.07-8.52-1.45-10.34C1351.06,537.69,1344.71,544.9,1352.4,547.22ZM1465,528.81c1.21,0,2.73-1.13,5-4.13-4.63-6-1.83-17.64-10.16-2.83C1461.89,525.4,1463,528.75,1465,528.81Zm-1119.9.33a3.31,3.31,0,0,0,3.27-1.39c4.33-5,0-13.34-5.42-8.19C340,522.33,342,528.42,345.08,529.14Zm893.11-79.66c1.08,0,2.65-1.49,4.93-5.67-2.79-3.62.54-12.11-7.13-3.55C1235.84,442.19,1235.82,449.47,1238.19,449.48ZM601.88,416.87a5.61,5.61,0,0,0,3.54-.81c3.37-7.64,2.92-8.67-5.56-8.46C599.86,412,599.43,416.29,601.88,416.87Zm402.28-15.61c6.75-.85,6.65-14.79-1.65-13.46C996.46,388.77,996.18,402.27,1004.16,401.26Zm-328.72-31.2a7.52,7.52,0,0,0,2.66-1c-.12-2.39,1.21-4.28-.33-6.77-10.1,0,2.24-.91-5.24,2.12,0,4,.75,5.92,2.91,5.66Z"/><g id="g5352"><path id="path4707" class="cls-4" d="M1327.59,6.08a4.11,4.11,0,0,0-1.45.67c-2.19,3.9-1.82,7.51,2.7,6.72,2.64-2.56,1.82-8-1.25-7.39ZM1094.24,24.69a2.18,2.18,0,0,0-1.24.56c-1.46,3.53-2.1,3.12-.17,6.78,1.59.94,2.47,1.61,3.84,0,.56-2.36,1.76-4-.17-5.88-.86-.22-1.26-1.5-2.26-1.46Zm-34.26,7a.84.84,0,0,0-.89.66c-.32,1-3.61,4.55,1.81,7.6,1-.73,1.63-1.61,3.14-1.81a11.15,11.15,0,0,0-.35-4.29c-.47-.38-2.47-2.13-3.71-2.16ZM98.43,48.54c-1.4.08-2.37.72-2.17,3.61-.51,2.21-.67,1.42.39,3.23,1.6.59,3.44,1.7,4.59-.51.53-2,1-5-1.31-6.27a13.14,13.14,0,0,0-1.5-.06ZM913.09,59.11c-1.72.44-1.48.22-2.62,2.25.44,3.16.62,4.19,3.31,4.29,1.23-1.15,2.35-1.59,1.75-4.06C914.42,60.47,916,58.84,913.09,59.11Zm-350.5,1.73c-.49-.1-.93.21-1.64,1.37.15,2-.07,3.66,1.36,4.1,2.5-1.18,3-.63,2.25-4.39a12.41,12.41,0,0,0-2-1.08Zm446.17,3.78a2.36,2.36,0,0,0-2.3,1.71c-2.82,4,.75,9.51,4.19,5.87,3-2.6,3.29-4.6.52-7.22a20.47,20.47,0,0,0-2.41-.36ZM1295.26,86a14.56,14.56,0,0,0-3.15.28c-.9,2.56-2.24,4.14-.92,7.17,3.77,4.87,5.39,5.28,7.39-1.6C1298.26,87.71,1297.71,86.15,1295.26,86ZM827.1,90.86c-.84,2.69-1.79,3.41-1,6.52,2.25,1.29,2.89,2.35,5.67.81C831.49,93.56,831.2,91.19,827.1,90.86Zm-676,16a2.6,2.6,0,0,0-.82.1c-.2,2-1.33,2.64-.53,5.22.9.11,1.64,1.42,2.68.34.72-.58,2.44,2.41,2.15-1.74-.36-1.18.8-3.26-1.07-3.47C152.73,107.25,151.94,106.9,151.12,106.88Zm-44,3.57c-.34-.09-.77.08-1.35.7-.91,1.85-4-1.22-1.88,3.83,1.67.66.22,2.8,3.49,1.38.3-.55,2.45-.47,1.34-2.43C108.19,113.47,108.08,110.74,107.08,110.45Zm396,4.74a7.59,7.59,0,0,0-2.45.52c-.44,3.38-1.45,4.3,1.58,5.27.58-.67,2-1.22,2-2.34C504.05,116.2,503.91,115.3,503.06,115.19Zm-297.95,7.58a1.59,1.59,0,0,0-.78,0,2.5,2.5,0,0,0-1.17.83c.3,1.94-2.22,2.26.63,4,.89-.18,1.88.39,2.69-.54.15-.46,1.61-2,1-3.22-.91-.31-1.64-1-2.41-1.12Zm534.47,12.9c-2.44,2.11-3.65,5.13-.42,8.56,3.39,1,4.64.73,4.48-5-1.52-3.54-.63-2.61-4.06-3.59Zm287.64,5.6c-1.4.22-2.69-.25-3.49,1.57-.1,2.1-.86,4.42,1.23,5.19,1.13.65,1.79,1.22,3.14.91l.52-.46.18-3.16c0-2.42.43-3.3-1.58-4.06ZM169.48,152.39a4.36,4.36,0,0,0-.91.1c-1.77.41-3.24-.11-3.76,2.43.59,2.29-.95,3.47,2.15,4.52,1-.24,2.07.55,2.95-.69v-3.83c-.39-.71,1.21-2.49-.43-2.53Zm381.09.56a6.24,6.24,0,0,0-2.05.48c0,1.92-.3,3.39.68,5.26a8,8,0,0,0,3.39-1.17C552.12,154.47,552.07,153,550.57,153ZM500.7,172.29c-.46,0-1,.43-1.9,1.31-1.31,3.38-1.83,3.7.9,5.26,1.64-.77,2.86-.51,3.17-3.51C501.9,173.39,501.46,172.28,500.7,172.29Zm-389.6,8.34c-2.34,1.21-3.61,2-2.42,5.91,1.6,1.14,1.73,2.26,3.76,1.39.21-.88,2.06-2.43,1.08-4.53A18.31,18.31,0,0,1,111.1,180.63Zm1119.64,19.06c-1.83,1.93-2.48,1.83-2.35,5,.53,3.4,1.47,3.23,4.27,2.2,2.69-2.14,2.38-4.2-1.92-7.18Zm-662.45.45a2.29,2.29,0,0,0-1,.36c-.53,3.44-.55,5.31,2.71,4.39.44-1.83,2.3-.45.91-3.8C569.91,200.74,569.21,200.07,568.29,200.14Zm-483.66,8.5a2.28,2.28,0,0,0-1.06.3c-2.43,2.18-3.69,1.4-2.82,6.08l.27.34,3.76.7c.83-1.43,2.34.41,1.61-2.78.2-.51,3.77-1.26,1.35-3.47a7.75,7.75,0,0,0-3.11-1.17ZM1367,214.18a5,5,0,0,0-2.16.43c-.4,3.12-1.65,8.09,2.29,7.26,1.49-.7,2.5-.47,2.91-3-1-2.72-1.39-4.56-3-4.73Zm-166.43,1.92a2.56,2.56,0,0,0-.76.17c-1.32,1.92-2.49,2.3-1.07,5.52,1.26.91,1.29,2.08,3.2,1.11.45-.94,2.5-1.66,1.71-3.59C1202.71,218.15,1202.14,216,1200.53,216.1ZM436,222.79c-.62,0-1.11.27-1.08,1.78.23.45-1.37,4,1.08,2.09.6-.29,2,.75,2.15-1-.09-.93.92-2-.27-2.78-.5.29-1.26,0-1.88-.05ZM758,249.92a1.39,1.39,0,0,0-.53,0c-.29.06-.67.18-1.27.32-1.32,2.2-2.28,3.29-.42,5.8,2.23,1.58,2,2.62,4.26,0a24.94,24.94,0,0,0,.22-4.15c-1.46-1.37-1.81-1.89-2.26-2ZM16.1,252.37c-1-.13-2,.31-3.61,3.24,1.84.92.82,7.17,6.23,3.11.32-2.07,3.64-3.19,1-6.2-1.56.67-2.57,0-3.58-.15Zm607.81,3.15c-1.73,5-5.29,7.57,4.14,6.54C628.05,255.88,629.65,255.61,623.91,255.52ZM983,266.29c-2.62.67-3,.15-4.06,3.58,1.16,3.4,2.39,4.12,5.34,3,.36-3,1.89-5.34-1.28-6.62Zm223,43.1c-1.88,3.32-3.26,4.25-1.28,8.28,2.44,1.41,3.85,2.43,4.92-1.38-.39-1.87-.32-3.82-1.29-5.52l-.21-.27-2.14-1.11Zm-86.74,25.68c-1.26.19-2.19,1.41-2.79,4-.27,2.21.56,3.64,3.37,3.32,2.67-.63,3.74-3.43,2-6.65a4.2,4.2,0,0,0-2.61-.66Zm-90.93,6.77c-2.49-.32-4.1,2.11-2.76,5.36,1.46,1,3.06,2.84,3.93.55,1.36-3.6.8-3.56-1.17-5.91Zm123.79,3.54c-2.41.31-5,2-3,5.76,1,.78,2.8,1.9,4.45.17C1153.45,347.24,1154.25,346.84,1152.08,345.38Zm93.61,11-4,.55c-.73,3.41-1.9,4.56.21,7.19,2.14,2.08,3.68,3.17,5.55-.56.18-1.88,1.42-3.87-.21-6.08Zm-293.5,25.5c-.75,1.3-1.83,2.08-.68,4.37,1.87.64,2.87,1.25,2.84-2.27C953.74,383,953.41,381.63,952.19,381.86Zm255.69,13.46c-2.33,2.64-2,3.37-.63,6.63,3,1.19,4.44.84,3.41-4.14C1209.84,396.74,1209.19,395.07,1207.88,395.32ZM989.07,418.9c-1.87,1.54-2.52,3.23-1,5.41,1.68,1.45,4.26,2.62,3.78-2.1-.7-1.4-.51-3.54-2.83-3.31Zm270.94.18c-3.29.53-2.86.29-5.35,1.66-.25,3.31-.57,7,2.57,7.74,2.32,0,3.9,1,4.27-2.76C1261.5,422.48,1261.49,422.08,1260,419.08Zm-520.75.31a4.93,4.93,0,0,0-2.57,1.54c.23,2.9.1,6.7,3.14,5.86,1.43-.14,2.14.37,3-1.58.33-2.74.7-3.65-1-5.63a12.05,12.05,0,0,0-2.49-.19ZM1123.59,458a4.4,4.4,0,0,0-1.87.74c-.41,1.23-3,2.92-1.7,5.11,2.87,1.11,2.34,1.41,5.09-.36C1125.37,459.83,1125.06,458,1123.59,458Zm-52.68,48.8c-2.12,0-2.92.29-2.7,3.5.81,2.11,1.22,4,3.37,3.84,3-2.32,2.38-6-.67-7.34ZM926.86,523.35c-3.26,1.17-2.33,4.51.4,4.87C931.57,527.29,929.31,524.25,926.86,523.35Zm51.5,26.07a2.73,2.73,0,0,0-1.77,1.14c.38,2.79.73,4.42,3.63,3.69C981.33,551.66,980.06,549.24,978.36,549.42Z"/><path id="path4709" class="cls-5" d="M1374.25,0c-2.49,2.58-3.9,1-3.17,6.38,1.86.8,3.86,3,6,.91C1378.15,3.42,1380.07.94,1374.25,0ZM1191.87,2.38a4,4,0,0,0-1.62.35c-13.38,5.49-1.56,12,1.76,8.67C1194.82,8.54,1195.15,2.49,1191.87,2.38ZM1890,16.87a4.68,4.68,0,0,0-1.38.37c-1.17,3.92-2.33,4.79,2,5.25C1891.87,20.38,1892.7,16.62,1890,16.87ZM255.09,24.74c-.19,0-.42,1.22-1,5.56l1,3.39c.65-.29,1.55.76,2-.84,1-.28,2.17.79,2.95-.86-.09-1.37.47-4-.32-4.65-.88-.25-1.86-1.87-2.95-.85C255.58,28.19,255.4,24.75,255.09,24.74Zm554.13,4.75c-.51.16-1,.88-1.61,2.45.22,1.75-3.33,1.77.55,4.63,1.26-.5,3.1,3.14,4.41-1.77-.8-2.08-1.75-4.86-2.84-5.29A.81.81,0,0,0,809.22,29.49ZM1788.71,31c-2.13,2.06-3.43,1.64-2.54,5.91C1790.81,38,1793.42,34.88,1788.71,31ZM868.42,32.4a1.08,1.08,0,0,0-.53,0,3.27,3.27,0,0,0-1,.49c-.4,2.37-.95,4,2,4,.86-1.27,1.28-1.46,1.06-3.37C869.27,33,868.9,32.51,868.42,32.4ZM382.49,51.47c-.75-.08-1.54-.14-1.82,1s-.7,2.77.16,3.87c1.07.5,2.87.43,3.26-1.25C383.63,52.93,383.76,52.6,382.49,51.47Zm1180.12,4.68a2.28,2.28,0,0,0-1.1.13c-1.11,3.4-1.5,4.29,0,7.1,1.76,2.29,2.83,2.69,5.35,1.32.22-3.35.85-4.67-1-7.3A15.55,15.55,0,0,0,1562.61,56.15ZM970.53,64a2.3,2.3,0,0,0-1.17.77c-.36,3.24-.83,4.7,2.75,4.32,1.2-1.39,2.18-.49,1.55-3.81C972.57,64.84,971.64,63.75,970.53,64Zm510.72,7.9a2.91,2.91,0,0,0-1.34.1c-.79,1-2.83,2-2.46,4,.51,2.48.67,3.89,2.61,5,1.88,0,2.83.07,3.59-2.73.21-1.41.95-2.64.32-4.23C1483,73.12,1482.38,72.1,1481.25,71.9ZM459.69,75.54c-.23,0-.41.1-.62.5-1.28.15-1.44,2-1.17,3.45,1.49.31,2.6.72,3.14-1.52-.07-.49.18-2.07-.53-2.2C460.18,75.7,459.92,75.56,459.69,75.54ZM1878.23,86.12c-4.85,1.14-2.79,5.89,1.77,6.24C1881.28,89.59,1882.77,88.25,1878.23,86.12ZM475,94.18a2.14,2.14,0,0,0-1.5,1.24,2.37,2.37,0,0,0,.27,3.45c1.27-.09,3-.38,3.37-2.13C476.81,95.39,476.29,94.48,475,94.18Zm323.44,15a5.12,5.12,0,0,0-1.54.73c-1.79,2.87-3.24,4.19,1.1,5.16,2-.78,2.79.41,2.75-3.56C799.51,110.11,799.49,108.93,798.4,109.14ZM916.59,118a7.84,7.84,0,0,0-1.45.28v4.28c.48.31,1.21,2.46,2.21,1.43,1.12-1.44,2.29-1.62,1.92-4.29C917.72,118.55,917.63,117.92,916.59,118ZM531,127.76c-.53.06-1,.59-1.65,2-1.06,4.57-.75,7.28,3.3,6.22.7-2.54,3.54-2.05,1.51-6.55C532.82,128.87,531.9,127.66,531,127.76Zm-225.54,6.9c-1,.65-3.44-.81-3.28,2.12l.66,3c1-.43,2.42.91,2.95-1.28C305.69,137.2,307.05,135.8,305.47,134.66ZM1367.2,140.9c-4.1,1-5.11-.36-3.53,6.38,1.91.41,3.91,1.93,5.64,0C1370.48,144.27,1374.82,143.49,1367.2,140.9Zm-158.91,4a5.44,5.44,0,0,0-2.88.6c-.64,3-1.81,6,1,8.66,3,.27,4.18,2.42,6-2.28C1211.85,147.92,1210.71,145.14,1208.29,144.86Zm-234,2.74c-.61-.16-1.34.15-2.4,1.31-.55,4-1.49,4,2.21,5.36,1.13-1.2,2.91-.34,3-3.2C976,149.55,975.34,147.88,974.33,147.6Zm-615.14,5.9c-.59.54-3.17-.79-2.29,2.12l1,3.39,2,.84c.42-1.1,2.24-1.26,1.32-3.38Zm353.57,5.68a3.63,3.63,0,0,0-1.5,2.56c-.26,1.82.31,2.74,1.6,3,1.62-.14,2.74,0,3.25-2.48C715.34,160.86,714.44,159.12,712.76,159.18ZM276.24,176.25c-.45.11-1.23.76-2.55,2.26-2.23,2.31-.59-6-3.28,3.38,1.2,1.39,0,5.18,2.95,3.4.76-.14,1.58.32,2.29-.43.11-.72,1.7-2.74.66-4.24C275.91,180.3,277.59,175.9,276.24,176.25ZM929.69,199.3c-.63.07-1.23.57-2.42,2,.8,2.67-2.19,2.14,1.38,4.64a10,10,0,0,0,4.14-.36,19.48,19.48,0,0,0-.56-5.7A11.08,11.08,0,0,0,929.69,199.3Zm901.87,1.51c-2.74,2.66-5,2.11-4.5,8.26,2,4.82,2.06,6.54,6.38,4.39,2-5.05,3.37,7.62,2.63-6.82C1834.67,202.57,1835.76,202.44,1831.56,200.81Zm-1395.15.76c-.33,0-.72.29-1.21,1.09s-3-.61-1.64,2.54c.21,1-.47,2.25.65,3,1.1-.14,2.24.3,3.28-.42,0-.1,2.53-2.61.32-3.39-.11-.07-.42-2.78-1.4-2.78Zm1224.9,1.57a2.79,2.79,0,0,0-.92.24c-1.51,2.12-3.33,3-2.34,6.06,1.88,2.43,2.36,5.51,6,4.38,1.54-6,2.87,7.37,1.81-7.08C1664.65,205.53,1663.33,203,1661.31,203.14ZM1351,230.26c-3.6.93-4.27.13-3.88,5.48,1.3,1.69,1.83,6.63,5.64,3.64C1354.62,235.92,1357.51,233.18,1351,230.26Zm214.28,3a5,5,0,0,0-1.32.12c-2.28,2.2-2.64,2-2.61,6.41,1.58,2.63,1.36,3.94,4.43,2,.85-1.09,3.21.08,2.61-3.36C1567.3,236.3,1567.88,233.35,1565.27,233.22ZM368.46,251.32c-1.83,0-2.48.37-1.74,4.31.91,1.67-.73,4.22,2.3,4.23,3.92,0,2.57,1.06,3.27-3.81v-.42l-1.63-4.23C369.8,251.4,369.06,251.33,368.46,251.32Zm-88.55,2.19c-1.38,1.57-2.92,1.69-2.63,4.66-.92,4.37-1.53,3.66,1.65,5.09,1.08-.28,2.06-1,3.28-.84.33-2.83,3,.55.65-5.51v-.86Zm1187.74,6.34a3.83,3.83,0,0,0-1.87.46c-1.06,3.42-2.73,6.12-.26,9.09,2.83,1.67,2.37,2.71,5.48,0,1-3.3,1.31-3.33.77-7.07C1470.43,261.32,1469.31,259.91,1467.65,259.85Zm161.09,25.23a.37.37,0,0,0-.3,0,5,5,0,0,0-1.43,1.82,14,14,0,0,1-3.13,1.35c0,2.86-.22,3.28,1.57,5.72,2.29,1.62,3.36,2.94,5.21-.67,0-2.35.37-3.87-.79-5.73C1629.25,287.46,1629.34,285.29,1628.74,285.08Zm-407.22,2a5,5,0,0,0-3.07,1.57c0,5.9-.3,8.11,4.93,6.4C1224.69,291.2,1224,287,1221.52,287.05Zm561.2,5.62c-3.43,2.73-6.24,1.62-4.13,9.23,3.3,2.34,4.28,5.15,7.52-.49C1786.11,296.14,1787.35,293.63,1782.72,292.67Zm-1437,4.92c-4.24.5-2.32-.73-2.95,3.38.4,1,.13,2.86,1.31,3.39,1.3-.14,2.68.48,3.94-.42C348.06,297.65,348.6,301.43,345.76,297.59Zm955.87.62c-3.83,2.06-7.52,4.74.71,6.38C1304.55,302.44,1307.88,298.77,1301.63,298.21Zm255.22,37a3.1,3.1,0,0,0-1.77.61c-1.35,2.75-2.48,4-1.3,7.07,2.49,1.43,4.33,1.8,6.52-1,.26-1.62,2.14-2.34.78-4.73C1560.13,336.6,1558.57,335.18,1556.85,335.21ZM1844,381.6c-4.35,3.07-9.77,9.65-1.88,12.64,2.43-.31,3.78.22,5.64-2.43C1847.39,387,1847.69,383.75,1844,381.6ZM107.49,386.2a3.3,3.3,0,0,0-3.27,1.38c-4.32,4.95,0,13.33,5.43,8.19C112.57,393,110.55,386.92,107.49,386.2Zm579.66,6a5.27,5.27,0,0,1-2.2,1.7c.23,3-.18,4.1,2,5.94.66-.15,1.37.35,2-.44l.65-.42,1.65-5.08C688,392.52,687.43,392.07,687.15,392.18Zm421.07,19.27c-4.86,7.19-5.87,10.18,3.37,8.71C1112.77,412.54,1114,413.18,1108.22,411.45Zm-133,31.2c-2.42,7.82-5.56,3.81,2.81,8.72C977.87,449,985.19,446.23,975.23,442.65Zm820.05,3.65h0a4.77,4.77,0,0,0-1.25,0c-2.59,2.46-6.39,4.62-1.27,8.2,5,0,3.42.77,5.59-2.63C1797.26,449.22,1797.74,446.61,1795.28,446.3Zm-153.81.82c-.6-.12-1.23.18-2.21,1.35-.61,2.21-1.61,3.67,0,5.56,3.5,2,5.69-1.1,4.29-5.76A9.44,9.44,0,0,0,1641.47,447.12ZM183.36,451.36c-1,.14-2.17,1.07-3.69,3.25-1.26,1.81.34,10.57,5.73,4.44C186.65,457.62,186.22,450.94,183.36,451.36ZM1420.7,465.84a1.44,1.44,0,0,0-1.07.54c-1.12,2.17-1.63,3.89.49,5.32,2.52.66,3.69.83,2.8-3.4C1422.16,467.45,1421.62,465.88,1420.7,465.84Zm159.67,16.28c-1.34,0-2.18.27-3.4,2.38-.18,3-.51,5.92,2.32,6.18,2.12.42,3.3.71,3.46-3.41a10.34,10.34,0,0,0-.83-5.12C1581.33,482.15,1580.82,482.12,1580.37,482.12ZM339.66,487.39c-1.76-.26-2.62.45-3.34,3.74,0,2.28.35,4.86,2.49,4.81s2.62-.14,4.39-2.2c-.17-3,.24-3.47-1.47-5.82A17.12,17.12,0,0,0,339.66,487.39Zm21.45,39.44a3,3,0,0,0-1.8,1.45c-.51,1.5-1.48,5.4,1.23,6,2,0,3-.34,3.61-2.77a8.94,8.94,0,0,0-.79-4.52A8.09,8.09,0,0,0,361.11,526.83Zm1140,5.81c-2.71,1.25-4.52.7-4.43,5.74,2.61,2.69,5.92,7.3,8.08,1.68C1504.06,537.22,1504.7,532,1501.14,532.64Zm205.18,2.55a4.37,4.37,0,0,0-2.87,1.48c-2.55,3.67-4.34,3.47-1.38,8.48,5,.59,2.61,1.05,7.23-1.34C1709,539.64,1708.55,535.28,1706.32,535.19Zm-473,25.44c-.83.13-2.12.92-4,2.67-7.78,7.13-5.65,5.79,2.48,8.53C1231.82,571.85,1236.86,560.05,1233.29,560.63Zm391.58,13.15c-1.73.2-2.55,1.81-2.09,4.74,1.32,3.06,2.88,5.06,5.61,2.55.2-2.62.58-5.44-1.48-7A4.85,4.85,0,0,0,1624.87,573.78Zm173,8.67a6.42,6.42,0,0,0-1.45.12c-4.18,2.4-3.46,3.32-1.72,8.92,2.61.42,5.47,2.69,7.24-1.35C1801.11,585.75,1800.85,582.61,1797.89,582.45Zm-373.25,49.91c-2.25,1.62-2.89,4,.48,5.74C1427.89,635.86,1428.65,632.89,1424.64,632.36Zm-317.18,3.36c-2.79-.25-5,2.79-1.94,8.89,3.65,7.2,8.67.68,6.49-4.85C1111,637.18,1109.12,635.86,1107.46,635.72Zm-226.42,0c-1-.41-2.68,1-2.56,2.36.15,1.63.75,5.66,2.93,3.32C883.34,639.33,886.11,637.8,881,635.74Zm-534.22,1c-2.81.31-7.58,10.13,2.29,7.41C352.57,643.21,353.59,636,346.82,636.76Zm1507.69,2.38a6.46,6.46,0,0,0-1.4.23c-3.65,2.46-5.07,7.53-1.26,10.66,2.75-.53,5.53.46,6.59-3.93C1858.44,641.93,1857.47,639,1854.51,639.14Zm-123,15.76a8.53,8.53,0,0,0-1.91.29c-2.45,11.44-1.71-7.09-1.71,8,3.1,1.21,2.79,1.82,6.2.9C1733.87,659,1735.22,654.84,1731.53,654.9Zm-992.62,1.84a6.83,6.83,0,0,0-3.1.76c-.88.37-1.5,2.23-1.09,3.31s1.95,5.1,3.66,1.42C739.52,659.78,740.82,657,738.91,656.74Zm359.77,45.83a8.89,8.89,0,0,0-4.19.95c-2,.89-5.89,14.36,3.71,9.05C1102.93,710,1103.48,702.93,1098.68,702.57ZM1374,710c-.47.16-.9.82-1.26,2.09-.54,2.09-1.22,2.37.79,3.68,2.2-.81,2.4-.1,3-3.07-.69-1.52-1.4-2.51-2-2.7A.75.75,0,0,0,1374,710Zm-565.71,8.1c-4.7-.22-5.42,14.24,1.1,6.62C811.49,722.18,813.81,718.33,808.25,718.07ZM1341,739.66a3.63,3.63,0,0,0-1.13.47c-2.39,3.4-.75,5.24,2.7,5.32C1343.26,743.11,1343.33,739.22,1341,739.66Zm-330.89,9.59a5.54,5.54,0,0,0-3,1.4c-4.1,3.06-6.25,3.61-.59,10,1.42,1.6,5.18,1.77,5.35-2.31C1012.14,753.2,1012.29,749.26,1010.15,749.25ZM868.29,761a4.33,4.33,0,0,0-1.15.15c-5.77,1.46-3.43,16.44,3.29,4.73C872,763.14,870.79,760.94,868.29,761Zm233,5.57c-5-.55-8.82,10.17.42,11,5.32.49,8-7.71.6-10.78A3.2,3.2,0,0,0,1101.34,766.55Zm319.28,13.32a4.15,4.15,0,0,0-2,.83c-2.61,4.15.68,6.35,3.95,4.09C1422.89,781.77,1422.27,779.78,1420.62,779.87ZM909,788.37c-1.43,0-2.85.85-1.23,4,.54,1,1,4,2.56,1.88,2-2.76,4.39-4.17,0-5.68A4.18,4.18,0,0,0,909,788.37ZM778.61,805.61c-1,0-1.71,2.57-1.09,3.79,1,2,1.54,7.24,3.66,3.78S784,805.41,778.61,805.61Zm420.66,35.49a4.48,4.48,0,0,0-1.37,0c-2.15.44-3.92,2.56-3.91,7.24,0,8,9.61,10.76,11.31.77A7.21,7.21,0,0,0,1199.27,841.1ZM842,845.5a3.27,3.27,0,0,0-1.56.33c-3.68,1.64-3.78,7.92,1.09,7.09C844.35,852.45,845.08,845.74,842,845.5Zm97.93,10.75c-1.64,3.89-4.14,3.67,1.1,6.14C943.41,858,945.12,857.11,939.93,856.25Z"/><path id="path4871" class="cls-6" d="M1790.3,121.56c-3.58,2.06-3.69-1.11-4,5.68,2.21,0,4.45.3,6.59-.56-.87-1.68.29-5.07-2.64-5.12Zm-81,16.51c-1.74,0-3.55,1.45-4.35,5.38-.91,4.52,4,6.45,7.48,3.22C1714.93,142.4,1712.22,138.13,1709.32,138.07Zm-54.83,79.41c-1.07-.11-2,1.64-2.22,7,3.24,2.32,2.51,3.9,6.61,1.13-.37-2.58-2.61-8-4.39-8.13ZM1584.42,298a13.42,13.42,0,0,0-4.23,1c-2.27,9.8,1,16.53,9.22,8C1589.41,300.57,1588,297.9,1584.42,298Zm222.89,31.36c-1.09.28-2.63,1.39-4.71,3.72-1.12,4.86-2.85,7.19,4.84,6.25,2.37-4.09,3.14-10.8-.13-10Zm-67.67,29.89c-1.5.38-3.29,2.07-5.16,5.67-2,8.6,1.29,9.74,8.34,7.41,2.4-5.57,1.14-12.08-1.76-13.05a2.53,2.53,0,0,0-1.42,0Z"/><path id="path4880" class="cls-6" d="M1712.26,27.57a7,7,0,0,0-2.66,0c-2.92,3.78-6.91,8.23,0,10.92,6.11-1.58,7.87-9.85,2.66-10.93Zm75,146.72a3.3,3.3,0,0,0-1.13,0,8.4,8.4,0,0,0-1.77.52c-5.31,5.15-1.86,9.66,4,7.28.61-4,1.12-7.38-1.12-7.81Zm62.89,67.54a5.13,5.13,0,0,0-3,1.15c-6.21,5.42-.09,14.51,3.44,11.54s5.56-13.51-.39-12.69Zm-137.9,14.85a6.72,6.72,0,0,0-2.92.48c-.29,4.14-.2,5.16,3.88,5,1.24-2.88,1.21-5.23-1-5.49Zm115.15,46.12c-3.24,1.53-4.67.73-4.83,6.25,1.54,4.47,1.42,5.75,6,3.64C1828.94,308.92,1830.39,307,1827.45,302.8Zm39.72,44.08c-1.33-.21-3,1.17-4.34,5.34,2,3,1.07,4.44,4.83,3.64,3-3.82,1.72-8.63-.49-9Z"/><path id="path4882" class="cls-6" d="M1623.86,119.08c4.38.49,3.05,2.7.6,5.08C1621.59,121.43,1622.19,123,1623.86,119.08Z"/><path id="path5089" class="cls-7" d="M275.14,831a2.13,2.13,0,0,0,1.23-.56c1.47-3.52,2.1-3.11.18-6.77-1.59-.93-2.47-1.6-3.83,0-.57,2.36-1.76,4,.17,5.86.85.22,1.25,1.51,2.25,1.47Zm34.18-7a.86.86,0,0,0,.89-.65c.32-1,3.6-4.55-1.8-7.59-1,.72-1.64,1.61-3.14,1.8a11.09,11.09,0,0,0,.35,4.28c.47.38,2.47,2.13,3.7,2.16Zm959.38-16.83c1.39-.07,2.36-.72,2.16-3.61.51-2.2.67-1.41-.39-3.22-1.59-.59-3.43-1.69-4.58.51-.53,2-1,5,1.31,6.26a9.74,9.74,0,0,0,1.5.06ZM455.88,796.66c1.71-.44,1.48-.23,2.61-2.25-.44-3.15-.62-4.18-3.3-4.28-1.23,1.16-2.35,1.59-1.74,4.06C454.55,795.31,453,796.93,455.88,796.66Zm349.7-1.72c.5.09.93-.21,1.64-1.37-.15-2,.07-3.66-1.35-4.09-2.5,1.17-3,.62-2.25,4.38A12.88,12.88,0,0,0,805.58,794.94Zm-445.15-3.77a2.35,2.35,0,0,0,2.29-1.71c2.81-4-.75-9.49-4.18-5.86-3,2.59-3.29,4.6-.52,7.21a20.47,20.47,0,0,0,2.41.36ZM74.58,769.83a14.39,14.39,0,0,0,3.13-.28c.9-2.56,2.24-4.13.93-7.16-3.76-4.86-5.38-5.27-7.38,1.59.32,4.15.87,5.7,3.32,5.85ZM541.68,765c.83-2.68,1.78-3.4.94-6.5-2.24-1.29-2.89-2.35-5.65-.81C537.29,762.29,537.58,764.65,541.68,765Zm674.44-16a2.13,2.13,0,0,0,.82-.1c.2-2,1.33-2.63.53-5.2-.89-.12-1.63-1.42-2.68-.34-.71.58-2.42-2.41-2.14,1.73.37,1.18-.79,3.25,1.07,3.46.8.09,1.59.43,2.4.45Zm44-3.56c.33.09.76-.08,1.34-.7.91-1.85,4,1.22,1.88-3.82-1.67-.66-.23-2.79-3.48-1.38-.31.55-2.45.47-1.34,2.43.49.46.6,3.18,1.6,3.47ZM865,740.71a7.33,7.33,0,0,0,2.45-.52c.43-3.37,1.44-4.29-1.58-5.26-.58.67-2,1.22-2,2.33.17,2.44.32,3.34,1.16,3.44Zm297.28-7.57a1.71,1.71,0,0,0,.78,0,2.48,2.48,0,0,0,1.16-.83c-.3-1.94,2.21-2.25-.62-4-.9.18-1.88-.39-2.69.53-.15.47-1.6,2-1,3.22.91.3,1.64,1,2.41,1.12ZM629,720.28c2.44-2.11,3.65-5.12.43-8.55-3.39-1-4.64-.72-4.47,5,1.52,3.54.62,2.61,4,3.59Zm-287-5.59c1.41-.22,2.69.25,3.49-1.57.1-2.09.86-4.41-1.23-5.18-1.13-.65-1.79-1.21-3.13-.9l-.52.45-.18,3.15c0,2.42-.42,3.3,1.57,4.05Zm855.8-11.1a3.28,3.28,0,0,0,.92-.09c1.76-.42,3.22.1,3.75-2.43-.59-2.29.94-3.46-2.15-4.51-1,.24-2.07-.55-2.94.69v3.82c.39.71-1.21,2.48.42,2.52ZM817.58,703a6.46,6.46,0,0,0,2-.48c0-1.92.3-3.39-.67-5.25a7.94,7.94,0,0,0-3.38,1.16c.47,3,.51,4.55,2,4.56Zm49.76-19.3c.46,0,1-.43,1.89-1.31,1.31-3.37,1.83-3.69-.9-5.25-1.63.77-2.85.51-3.16,3.5,1,2,1.41,3.07,2.17,3.06Zm388.72-8.32c2.32-1.21,3.6-2,2.41-5.89-1.6-1.15-1.72-2.26-3.76-1.39-.2.88-2,2.42-1.07,4.51a18.87,18.87,0,0,1,2.42,2.77ZM139,656.4c1.82-1.92,2.48-1.83,2.34-5-.52-3.4-1.46-3.23-4.26-2.21-2.68,2.14-2.38,4.2,1.92,7.17Zm661-.45a2.11,2.11,0,0,0,1-.35c.53-3.44.54-5.31-2.71-4.38-.43,1.82-2.29.44-.9,3.79,1,.35,1.68,1,2.6.94Zm482.57-8.48a2.14,2.14,0,0,0,1-.29c2.43-2.18,3.68-1.41,2.81-6.07l-.27-.34-3.75-.7c-.82,1.43-2.33-.41-1.61,2.78-.19.5-3.76,1.26-1.34,3.46a7.75,7.75,0,0,0,3.11,1.17ZM3,641.94a4.8,4.8,0,0,0,2.16-.42c.4-3.12,1.65-8.07-2.28-7.25-1.49.7-2.5.47-2.91,3,1.05,2.72,1.39,4.55,3,4.71ZM169.09,640a2.09,2.09,0,0,0,.76-.18c1.31-1.91,2.48-2.29,1.07-5.51-1.27-.9-1.29-2.07-3.2-1.1-.45.94-2.5,1.65-1.7,3.58.89,1.15,1.47,3.27,3.07,3.2Zm762.83-6.68c.62,0,1.11-.26,1.07-1.78-.22-.44,1.38-4-1.07-2.08-.6.29-2-.75-2.14,1,.09.93-.93,2,.27,2.78.5-.3,1.25.05,1.87.05ZM610.58,606.28c.15.06.31,0,.53,0l1.26-.31c1.32-2.19,2.28-3.29.43-5.79-2.23-1.57-2-2.61-4.26,0a27.15,27.15,0,0,0-.22,4.14c1.46,1.37,1.81,1.89,2.26,2Zm740.26-2.44c1,.13,2-.31,3.6-3.24-1.84-.91-.82-7.15-6.22-3.09-.31,2.06-3.63,3.18-1,6.18,1.55-.67,2.56,0,3.56.15ZM744.4,600.7c1.73-5,5.29-7.56-4.13-6.53C740.27,600.34,738.68,600.61,744.4,600.7ZM386.17,590c2.61-.68,3-.16,4.05-3.58-1.16-3.39-2.39-4.11-5.33-3C384.53,586.31,383,588.68,386.17,590Zm-222.5-43c1.88-3.31,3.26-4.24,1.28-8.26-2.43-1.41-3.84-2.43-4.91,1.37.39,1.87.32,3.82,1.29,5.51l.21.28,2.13,1.1Zm86.55-25.62c1.25-.2,2.18-1.41,2.78-4,.27-2.21-.56-3.63-3.36-3.31-2.67.62-3.74,3.42-2,6.62a4.16,4.16,0,0,0,2.61.67Zm90.72-6.76c2.48.32,4.09-2.1,2.75-5.34-1.45-1-3.05-2.84-3.92-.55-1.35,3.59-.8,3.55,1.17,5.89ZM217.43,511c2.4-.31,5-2,3-5.75-1-.78-2.79-1.9-4.44-.17.12,4.07-.69,4.47,1.48,5.93Zm-93.4-11,4.05-.54c.73-3.4,1.89-4.55-.21-7.17-2.14-2.08-3.68-3.17-5.55.55-.18,1.88-1.41,3.86.22,6.07l1.49,1.1Zm292.84-25.44c.75-1.29,1.82-2.08.67-4.35-1.86-.64-2.86-1.26-2.83,2.26C415.32,473.52,415.65,474.87,416.87,474.64ZM161.75,461.21c2.33-2.63,2-3.36.64-6.62-3-1.18-4.43-.83-3.41,4.14C159.8,459.8,160.45,461.46,161.75,461.21Zm218.33-23.52c1.86-1.54,2.5-3.22.94-5.4-1.68-1.45-4.25-2.62-3.77,2.09.7,1.4.5,3.54,2.83,3.31Zm-270.33-.19c3.28-.53,2.85-.28,5.33-1.65.25-3.3.57-7-2.56-7.72-2.31,0-3.89-1-4.26,2.75C108.26,434.11,108.26,434.51,109.75,437.5Zm519.57-.3a5,5,0,0,0,2.56-1.53c-.23-2.9-.1-6.69-3.14-5.86-1.42.15-2.12-.36-3,1.58-.32,2.74-.7,3.64,1.05,5.62a12,12,0,0,0,2.49.19ZM245.85,398.64a4,4,0,0,0,1.87-.74c.41-1.23,3-2.92,1.69-5.1-2.85-1.11-2.32-1.41-5.07.36-.26,3.69,0,5.56,1.51,5.48Zm52.57-48.7c2.11,0,2.91-.29,2.69-3.48-.81-2.11-1.22-4-3.36-3.84-3,2.32-2.37,6,.67,7.32Zm143.72-16.46c3.25-1.18,2.33-4.51-.39-4.86C437.44,329.55,439.7,332.57,442.14,333.48Zm-51.38-26a2.67,2.67,0,0,0,1.76-1.13c-.38-2.79-.72-4.41-3.62-3.68C387.79,305.23,389.06,307.64,390.76,307.46Z"/></g></g></g></g></g></svg>